<svg width="16" height="17" viewBox="0 0 16 17" fill="none" xmlns="http://www.w3.org/2000/svg">
<g id="Github">
<path id="Icon" d="M6.00016 13.6668C2.66683 14.6668 2.66683 12.0001 1.3335 11.6668M10.6668 15.6668V13.0868C10.6918 12.7689 10.6489 12.4493 10.5408 12.1493C10.4328 11.8493 10.2621 11.5757 10.0402 11.3468C12.1335 11.1135 14.3335 10.3201 14.3335 6.68012C14.3333 5.74934 13.9753 4.85425 13.3335 4.18012C13.6374 3.36579 13.6159 2.46569 13.2735 1.66679C13.2735 1.66679 12.4868 1.43345 10.6668 2.65345C9.13884 2.23934 7.52816 2.23934 6.00016 2.65345C4.18016 1.43345 3.3935 1.66679 3.3935 1.66679C3.05108 2.46569 3.02959 3.36579 3.3335 4.18012C2.68691 4.85925 2.32851 5.76243 2.3335 6.70012C2.3335 10.3135 4.5335 11.1068 6.62683 11.3668C6.40749 11.5934 6.23834 11.8637 6.13037 12.1601C6.0224 12.4564 5.97803 12.7722 6.00016 13.0868V15.6668" stroke="#767676" stroke-width="1.6" stroke-linecap="round" stroke-linejoin="round"/>
</g>
</svg>
