<svg width="49" height="49" viewBox="0 0 49 49" fill="none" xmlns="http://www.w3.org/2000/svg">
<path d="M44.5 24.7998C44.5 35.8455 35.5457 44.7998 24.5 44.7998M44.5 24.7998C44.5 13.7541 35.5457 4.7998 24.5 4.7998M44.5 24.7998H4.5M24.5 44.7998C13.4543 44.7998 4.5 35.8455 4.5 24.7998M24.5 44.7998C29.5026 39.3231 32.3455 32.2157 32.5 24.7998C32.3455 17.3839 29.5026 10.2765 24.5 4.7998M24.5 44.7998C19.4974 39.3231 16.6545 32.2157 16.5 24.7998C16.6545 17.3839 19.4974 10.2765 24.5 4.7998M4.5 24.7998C4.5 13.7541 13.4543 4.7998 24.5 4.7998" stroke="#47B2E4" stroke-width="4" stroke-linecap="round" stroke-linejoin="round"/>
</svg>
