<svg width="218" height="41" viewBox="0 0 218 41" fill="none" xmlns="http://www.w3.org/2000/svg">
<path d="M10.9497 36.6667L14.0043 24.9583L3.75977 17.0833L17.2938 16.0417L22.5571 5L27.8203 16.0417L41.3544 17.0833L31.1099 24.9583L34.1645 36.6667L22.5571 30.4583L10.9497 36.6667Z" fill="#E5F580"/>
<path d="M183.385 36.6667L186.44 24.9583L176.195 17.0833L189.729 16.0417L194.993 5L200.256 16.0417L213.79 17.0833L203.545 24.9583L206.6 36.6667L194.993 30.4583L183.385 36.6667Z" fill="#E5F580"/>
<path d="M97.1646 36.7917L100.219 25.0833L89.9746 17.2083L103.509 16.1667L108.772 5.125L114.035 16.1667L127.569 17.2083L117.325 25.0833L120.379 36.7917L108.772 30.5833L97.1646 36.7917Z" fill="#E5F580"/>
<path d="M54.0591 36.7917L57.1137 25.0833L46.8691 17.2083L60.4032 16.1667L65.6665 5.125L70.9297 16.1667L84.4638 17.2083L74.2193 25.0833L77.2738 36.7917L65.6665 30.5833L54.0591 36.7917Z" fill="#E5F580"/>
<path d="M140.276 36.6667L143.33 24.9583L133.086 17.0833L146.62 16.0417L151.883 5L157.147 16.0417L170.681 17.0833L160.436 24.9583L163.491 36.6667L151.883 30.4583L140.276 36.6667Z" fill="#E5F580"/>
</svg>
